<svg xmlns="http://www.w3.org/2000/svg" viewBox="0 0 42.06 39.85">
  <path d="M7806.63,3302.47q-6.465-6.435-12.92-12.89c-3.76-3.74,2.09-9.54,5.86-5.78q7.92,7.89,15.83,15.78a4.156,4.156,0,0,1-.03,5.82q-7.92,7.89-15.83,15.78c-3.76,3.75-9.57-2.09-5.8-5.85Q7800.19,3308.91,7806.63,3302.47Zm-18,0q-6.465-6.435-12.92-12.89c-3.76-3.74,2.09-9.54,5.86-5.78q7.92,7.89,15.83,15.78a4.156,4.156,0,0,1-.03,5.82q-7.92,7.89-15.83,15.78c-3.76,3.75-9.57-2.09-5.8-5.85Q7782.19,3308.91,7788.63,3302.47Z" transform="translate(-7774.5 -3282.56)"/>
</svg>
