<svg xmlns="http://www.w3.org/2000/svg" viewBox="0 0 42.06 39.85">
  <path d="M7250.43,3302.47q6.465-6.435,12.93-12.89c3.76-3.74-2.1-9.54-5.87-5.78q-7.9,7.89-15.83,15.78a4.156,4.156,0,0,0,.03,5.82q7.92,7.89,15.83,15.78c3.76,3.75,9.57-2.09,5.81-5.85Q7256.88,3308.91,7250.43,3302.47Zm18,0q6.465-6.435,12.93-12.89c3.76-3.74-2.1-9.54-5.87-5.78q-7.9,7.89-15.83,15.78a4.147,4.147,0,0,0,.04,5.82q7.905,7.89,15.82,15.78c3.76,3.75,9.57-2.09,5.81-5.85Q7274.88,3308.91,7268.43,3302.47Z" transform="translate(-7240.5 -3282.56)"/>
</svg>
